<svg width="50" height="50" viewBox="0 0 50 50" fill="none" xmlns="http://www.w3.org/2000/svg">
<path fill-rule="evenodd" clip-rule="evenodd" d="M31.5703 43.03H47.2724V33.6742C45.0092 35.2324 41.3367 35.8523 38.422 36.0915L36.7322 37.8027H36.7926V38.8816C36.7926 40.018 35.8536 40.9391 34.6966 40.9391C34.3839 40.9391 34.0872 40.8718 33.8206 40.7512L31.5703 43.03ZM40.7694 33.7143C44.4867 33.1215 47.2724 31.9117 47.2724 30.0716V27.3481H47.056L40.7694 33.7143Z" fill="black"/>
<path fill-rule="evenodd" clip-rule="evenodd" d="M49.3746 25L24.6873 0L0 25L24.6873 50L31.5702 43.0299H22.1209V33.5194C24.0733 34.958 27.8104 36.2345 34.9377 36.2345C35.747 36.2345 36.9934 36.2087 38.4219 36.0915L40.7693 33.7143C33.317 34.9029 22.1209 33.6122 22.1209 29.9524V27.3481H47.0559L49.3746 25ZM36.7321 37.8027H32.6007V38.8816C32.6007 39.7108 33.1007 40.4254 33.8205 40.7511L36.7321 37.8027ZM29.4568 24.2118C29.4568 23.0576 30.3958 22.1208 31.5527 22.1208H37.8406C38.9976 22.1208 39.9366 23.0576 39.9366 24.2118V26.3027H37.8406V24.7345C37.8406 24.4459 37.6059 24.2118 37.3166 24.2118H32.0767C31.7875 24.2118 31.5527 24.4459 31.5527 24.7345V26.3027H29.4568V24.2118Z" fill="black"/>
</svg>