<svg xmlns="http://www.w3.org/2000/svg" width="100" height="100" viewBox="0 0 100 100">
  <g id="Icon_ionic-ios-close-circle-outline" data-name="Icon ionic-ios-close-circle-outline" transform="translate(-3.375 -3.375)">
    <path id="Path_28" data-name="Path 28" d="M49.746,44.326,37.077,31.657,49.746,18.988a3.842,3.842,0,0,0-5.433-5.433L31.644,26.224,18.975,13.555a3.675,3.675,0,0,0-5.433,0,3.712,3.712,0,0,0,0,5.433L26.211,31.657,13.542,44.326a3.714,3.714,0,0,0,0,5.433,3.816,3.816,0,0,0,5.433,0L31.644,37.09,44.313,49.759a3.86,3.86,0,0,0,5.433,0A3.816,3.816,0,0,0,49.746,44.326Z" transform="translate(21.731 21.718)" fill="#f2f2f2"/>
    <path id="Path_29" data-name="Path 29" d="M53.375,10.106a43.276,43.276,0,0,1,30.6,73.87,43.276,43.276,0,0,1-61.2-61.2,42.983,42.983,0,0,1,30.6-12.668m0-6.731a50,50,0,1,0,50,50,49.992,49.992,0,0,0-50-50Z" transform="translate(0 0)" fill="#f2f2f2"/>
  </g>
</svg>
