<svg width="54" height="52" viewBox="0 0 54 52" fill="none" xmlns="http://www.w3.org/2000/svg">
<path fill-rule="evenodd" clip-rule="evenodd" d="M41.2583 35.157C42.7008 34.9776 44.2292 35.4341 46.0507 37.0219C45.3905 38.4477 45.6387 40.1918 46.819 41.3721C48.3292 42.8823 50.7723 42.8872 52.2765 41.3831C53.7806 39.8789 53.7757 37.4358 52.2655 35.9256C51.0761 34.7362 49.3156 34.4952 47.8825 35.1736L44.5413 31.8324L41.2583 35.157ZM51.1828 40.2894C50.2814 41.1908 48.8133 41.1878 47.9083 40.2828C47.0033 39.3778 47.0003 37.9097 47.9017 37.0083C48.8031 36.1069 50.2712 36.1099 51.1762 37.0149C52.0812 37.9199 52.0842 39.388 51.1828 40.2894Z" fill="white"/>
<path fill-rule="evenodd" clip-rule="evenodd" d="M50.6505 25.6461L25.3252 0L-9.10152e-05 25.6461L25.3252 51.2921L41.2585 35.157C39.676 35.3538 38.1969 36.3159 36.5474 37.3893C33.2064 39.5638 29.084 42.2242 23.8518 36.638C22.4287 37.2863 20.6954 37.0345 19.5206 35.8597C18.0104 34.3495 18.0055 31.9064 19.5096 30.4022C21.0138 28.8981 23.4569 28.903 24.9672 30.4132C26.173 31.619 26.4031 33.4122 25.6874 34.8552C29.4494 38.9223 31.8639 37.3626 35.1378 35.2317C37.0173 34.0085 39.1502 32.632 41.6241 32.546L34.7957 25.7177C33.3636 26.397 31.6031 26.1561 30.4137 24.9667C28.9035 23.4565 28.8986 21.0133 30.4027 19.5092C31.9069 18.005 34.35 18.0099 35.8602 19.5201C37.0496 20.7095 37.2906 22.4701 36.6113 23.9022L44.5415 31.8324L50.6505 25.6461ZM31.4964 20.6029C32.3978 19.7015 33.8659 19.7044 34.7709 20.6094C35.676 21.5145 35.6789 22.9825 34.7775 23.8839C33.8761 24.7853 32.408 24.7824 31.503 23.8774C30.598 22.9723 30.595 21.5043 31.4964 20.6029ZM23.8779 31.5025C24.7829 32.4075 24.7858 33.8756 23.8844 34.777C22.983 35.6784 21.515 35.6755 20.6099 34.7704C19.7049 33.8654 19.7019 32.3973 20.6033 31.4959C21.5047 30.5945 22.9728 30.5975 23.8779 31.5025Z" fill="white"/>
</svg>