<svg width="51" height="51" viewBox="0 0 51 51" fill="none" xmlns="http://www.w3.org/2000/svg">
<path fill-rule="evenodd" clip-rule="evenodd" d="M34.4448 41.3902L36.9017 43.8503L45.5915 45.6086L43.8437 36.9191L41.3378 34.4099L39.6199 36.1496L42.1006 38.6369L41.0638 39.6725L38.5902 37.1924L37.1871 38.6132L39.6512 41.0834L38.6143 42.119L36.1576 39.6557L34.4448 41.3902Z" fill="white"/>
<path fill-rule="evenodd" clip-rule="evenodd" d="M50.2114 25.4237L25.1057 0L0 25.4237L25.1057 50.8474L34.4444 41.3904L21.5024 28.4316L28.4433 21.4992L41.3374 34.4101L50.2114 25.4237ZM39.6195 36.1498L28.546 25.0468L27.5091 26.0824L38.5898 37.1925L39.6195 36.1498ZM37.1867 38.6134L26.0953 27.4945L25.0597 28.5288L36.1572 39.6559L37.1867 38.6134ZM26.7193 19.7719L23.286 16.3368L16.3464 23.2705L19.7772 26.7055L26.7193 19.7719Z" fill="white"/>
</svg>