<svg width="54" height="52" viewBox="0 0 54 52" fill="none" xmlns="http://www.w3.org/2000/svg">
<path fill-rule="evenodd" clip-rule="evenodd" d="M41.2583 35.157C42.7008 34.9776 44.2292 35.4341 46.0507 37.0219C45.3905 38.4477 45.6387 40.1918 46.819 41.3721C48.3292 42.8823 50.7723 42.8872 52.2765 41.3831C53.7806 39.8789 53.7757 37.4358 52.2655 35.9256C51.0761 34.7362 49.3156 34.4952 47.8825 35.1736L44.5413 31.8324L41.2583 35.157ZM51.1828 40.2894C50.2814 41.1908 48.8133 41.1878 47.9083 40.2828C47.0033 39.3778 47.0003 37.9097 47.9017 37.0083C48.8031 36.1069 50.2712 36.1099 51.1762 37.0149C52.0812 37.9199 52.0842 39.388 51.1828 40.2894Z" fill="black"/>
<path fill-rule="evenodd" clip-rule="evenodd" d="M50.6506 25.6461L25.3253 0L0 25.6461L25.3253 51.2921L41.2586 35.157C39.6761 35.3538 38.197 36.3159 36.5475 37.3893C33.2065 39.5638 29.0841 42.2242 23.8519 36.638C22.4288 37.2863 20.6955 37.0345 19.5207 35.8597C18.0105 34.3495 18.0056 31.9064 19.5097 30.4022C21.0139 28.8981 23.457 28.903 24.9673 30.4132C26.1731 31.619 26.4031 33.4122 25.6875 34.8552C29.4495 38.9223 31.864 37.3626 35.1379 35.2317C37.0173 34.0085 39.1503 32.632 41.6242 32.546L34.7958 25.7177C33.3637 26.397 31.6032 26.1561 30.4138 24.9667C28.9036 23.4565 28.8987 21.0133 30.4028 19.5092C31.907 18.005 34.3501 18.0099 35.8603 19.5201C37.0497 20.7095 37.2907 22.4701 36.6114 23.9022L44.5416 31.8324L50.6506 25.6461ZM31.4965 20.6029C32.3979 19.7015 33.866 19.7044 34.771 20.6094C35.676 21.5145 35.679 22.9825 34.7776 23.8839C33.8762 24.7853 32.4081 24.7824 31.5031 23.8774C30.5981 22.9723 30.5951 21.5043 31.4965 20.6029ZM23.8779 31.5025C24.783 32.4075 24.7859 33.8756 23.8845 34.777C22.9831 35.6784 21.5151 35.6755 20.61 34.7704C19.705 33.8654 19.702 32.3973 20.6034 31.4959C21.5048 30.5945 22.9729 30.5975 23.8779 31.5025Z" fill="black"/>
</svg>