<svg width="51" height="51" viewBox="0 0 51 51" fill="none" xmlns="http://www.w3.org/2000/svg">
<path fill-rule="evenodd" clip-rule="evenodd" d="M29.8125 46.3102C31.785 48.2448 34.4907 49.4542 37.516 49.4542C43.598 49.4542 48.5274 44.5248 48.5274 38.4429C48.5274 35.3633 47.2763 32.6195 45.2856 30.6411L43.5676 32.3808C45.1267 33.9394 46.0804 36.0921 46.0804 38.4429C46.0804 43.1655 42.2387 47.0073 37.516 47.0073C35.2035 47.0073 33.083 46.0844 31.5299 44.571L29.8125 46.3102ZM32.8208 43.2638C34.0332 44.4447 35.6895 45.1721 37.516 45.1721C41.233 45.1721 44.2452 42.1598 44.2452 38.4429C44.2452 36.5864 43.4932 34.9052 42.2772 33.6876L32.8208 43.2638ZM35.9867 41.5016C35.9867 40.9951 36.3977 40.584 36.9043 40.584C37.4108 40.584 37.8219 40.9951 37.8219 41.5016C37.8219 42.0081 37.4108 42.4192 36.9043 42.4192C36.3977 42.4192 35.9867 42.0081 35.9867 41.5016ZM38.7395 38.4429C38.7395 37.7675 39.2876 37.2194 39.963 37.2194C40.6383 37.2194 41.1865 37.7675 41.1865 38.4429C41.1865 39.1182 40.6383 39.6664 39.963 39.6664C39.2876 39.6664 38.7395 39.1182 38.7395 38.4429Z" fill="black"/>
<path fill-rule="evenodd" clip-rule="evenodd" d="M50.3621 25.5L25.1811 0L0 25.5L25.1811 51L29.8122 46.3102C28.061 44.5925 26.8876 42.3033 26.5815 39.7814C26.2572 37.1093 25.0582 33.7997 23.1545 31.8972L19.1635 27.8866L20.8751 26.1566L24.8845 30.166C27.1577 32.438 28.6235 36.2883 29.0101 39.4865C29.2528 41.4833 30.1756 43.2515 31.5297 44.571L32.8206 43.2637C31.5658 42.0415 30.7866 40.3333 30.7866 38.4429C30.7866 34.7271 33.7988 31.7137 37.5158 31.7137C39.3756 31.7137 41.059 32.4682 42.2769 33.6876L43.5674 32.3808C43.5669 32.3803 43.5664 32.3798 43.5659 32.3793C41.7806 30.5939 39.785 30.2198 37.6185 29.8135C35.0458 29.3311 32.232 28.8035 29.2425 25.8141L25.2332 21.8022L26.9632 20.0906L30.9738 24.084C32.8714 25.9817 36.1883 27.1868 38.853 27.511C41.3261 27.8104 43.5778 28.9442 45.2853 30.6411L50.3621 25.5ZM19.1635 21.8206L20.8935 20.0906L32.4689 31.6623L30.7389 33.3923L19.1635 21.8206ZM33.8453 36.6076C33.8453 35.5934 34.6663 34.7724 35.6805 34.7724C36.6948 34.7724 37.5158 35.5934 37.5158 36.6076C37.5158 37.6219 36.6948 38.4429 35.6805 38.4429C34.6663 38.4429 33.8453 37.6219 33.8453 36.6076Z" fill="black"/>
</svg>