<svg width="50" height="50" viewBox="0 0 50 50" fill="none" xmlns="http://www.w3.org/2000/svg">
<path fill-rule="evenodd" clip-rule="evenodd" d="M29.709 44.9149C31.5224 46.0676 33.1882 46.6672 34.4617 46.6672C35.2144 46.6672 35.8324 46.4416 36.2587 46.017L45.6515 36.6705C46.3224 37.3123 45.7777 38.7883 45.2901 40.1094C45.0095 40.87 44.7478 41.5792 44.7478 42.0484C44.7478 43.3257 45.7886 44.3613 47.071 44.3613C48.3546 44.3613 49.3942 43.3246 49.3942 42.0472C49.3942 38.3632 47.7389 34.1679 46.0755 31.2406C45.7772 30.6763 45.4149 30.0742 44.9851 29.4453L43.4125 31.0379C43.5121 31.1724 43.6085 31.3057 43.7012 31.4373C43.5579 31.348 43.4143 31.2628 43.2706 31.1816L39.8678 34.6275C41.0057 35.4375 42.069 36.0019 42.888 36.151L34.6231 44.374C34.4533 44.4846 33.2271 44.3143 31.3796 43.2232L29.709 44.9149Z" fill="black"/>
<path fill-rule="evenodd" clip-rule="evenodd" d="M49.3746 25L24.6873 0L0 25L24.6873 50L29.7089 44.9149C28.4588 44.1203 27.1386 43.0629 25.8285 41.7579C22.8176 38.7601 21.5154 36.1209 21.5154 34.2303C21.5154 33.3556 21.7942 32.6406 22.3111 32.1245L24.79 29.6589C25.0409 30.3369 25.6055 31.1978 26.1154 31.6131L23.956 33.7606C23.7841 34.0232 23.5308 36.1961 27.4722 40.1219C28.9359 41.5802 30.2697 42.5678 31.3794 43.2231L39.8677 34.6274C36.5738 32.2825 32.6549 27.8794 32.2267 25.5318L27.7208 30.0153C28.6931 31.2556 30.2775 32.4855 32.6367 33.3707L32.8342 33.0745C33.5149 32.3953 34.6173 32.3965 35.3003 33.0756C35.981 33.7536 35.9787 34.8493 35.298 35.5274C34.6173 36.2054 33.5173 36.2077 32.8342 35.5274C32.5461 35.2416 32.4079 34.8771 32.3638 34.5034C28.1819 32.9692 26.0759 30.374 25.5044 28.2844C25.0723 26.7062 25.4068 25.2206 26.4244 24.2082C27.4397 23.1935 29.2065 22.7978 31.4124 23.0708L32.9934 21.4973C33.1699 21.3214 33.5114 21.2126 33.9924 21.2126C35.5106 21.2126 38.4158 22.2956 41.8739 25.7412C43.159 27.0212 44.1882 28.2792 44.985 29.4452L49.3746 25ZM43.4124 31.0378C42.4511 29.7404 41.1967 28.34 40.2895 27.4363C38.4611 25.614 35.2399 23.0269 34.4094 23.8541C33.5881 24.6722 36.5049 28.2173 38.0057 29.7122L38.0406 29.7457C39.5306 29.7382 41.4129 30.1314 43.2704 31.1815L43.4124 31.0378ZM30.3321 24.1457C28.9556 24.111 27.859 24.413 27.2468 25.0262C26.5476 25.7204 26.3303 26.7236 26.6045 27.8551L30.3321 24.1457Z" fill="black"/>
</svg>