<svg width="51" height="51" viewBox="0 0 51 51" fill="none" xmlns="http://www.w3.org/2000/svg">
<path fill-rule="evenodd" clip-rule="evenodd" d="M38.1543 37.8624C38.2636 37.9366 38.3699 38.0377 38.4726 38.1721C38.7617 38.546 38.796 39.0583 38.5596 39.4679L38.1523 40.1732L39.9369 41.2035C39.9831 41.1235 40.0275 41.0423 40.0717 40.9614C40.3901 40.3792 40.6957 39.8202 41.549 39.931C42.3609 40.0336 42.5205 40.6846 42.6762 41.3196L42.6762 41.3198C42.6971 41.4049 42.7179 41.4897 42.7401 41.5728L44.7309 41.0394C44.7105 40.963 44.6883 40.886 44.6661 40.8087L44.6661 40.8087C44.4837 40.1745 44.2958 39.521 44.9728 38.9977C45.6217 38.4967 46.2142 38.8575 46.7553 39.1871L46.7555 39.1871C46.8292 39.2321 46.9021 39.2764 46.974 39.318L48.0043 37.5334C47.9396 37.4961 47.8711 37.4587 47.8006 37.4204C47.2666 37.1294 46.6238 36.7792 46.7317 35.9213C46.8336 35.1134 47.4858 34.9518 48.1271 34.7929C48.2098 34.7724 48.2924 34.752 48.3736 34.7302L47.8399 32.7398C47.7565 32.7622 47.6724 32.7866 47.5881 32.8112C46.9607 32.9938 46.3182 33.1809 45.8229 32.5294L45.7985 32.4975C45.2974 31.8486 45.6583 31.2561 45.9878 30.715L45.9878 30.715C46.0328 30.6411 46.0772 30.5682 46.1187 30.4963L45.679 30.2424L42.627 33.3331C42.8116 33.3785 42.9929 33.4504 43.1658 33.5502C44.1513 34.1192 44.489 35.3796 43.9201 36.3651C43.3511 37.3506 42.0907 37.6883 41.1052 37.1193C40.6069 36.8316 40.2742 36.3672 40.1406 35.8509L38.1543 37.8624Z" fill="black"/>
<path fill-rule="evenodd" clip-rule="evenodd" d="M50.3621 25.5L25.1811 0L0 25.5L25.1811 51L38.1543 37.8625C37.7062 37.5586 37.2065 37.7051 36.6959 37.8548L36.6957 37.8548C36.6077 37.8806 36.5193 37.9065 36.4309 37.9302L35.8979 35.9397C35.9855 35.9162 36.0742 35.8947 36.1629 35.8732C36.8017 35.7182 37.4335 35.5648 37.5447 34.7091C37.6548 33.8943 37.0376 33.5583 36.4893 33.2597C36.413 33.2182 36.3382 33.1774 36.2667 33.1362L37.297 31.3516C37.3689 31.3932 37.4418 31.4375 37.5157 31.4825L37.5159 31.4827C38.0565 31.812 38.6497 32.1734 39.2982 31.6719C39.9827 31.1487 39.8015 30.5308 39.6153 29.8957C39.5895 29.8076 39.5636 29.7192 39.5398 29.6306L41.5302 29.097C41.5525 29.1802 41.5733 29.265 41.5941 29.3501L41.5943 29.3506C41.7498 29.9853 41.909 30.6353 42.7213 30.7388C43.5863 30.8202 43.8548 30.3325 44.1907 29.7223L44.1908 29.7223C44.2367 29.6388 44.284 29.553 44.3341 29.4661L45.6789 30.2425L50.3621 25.5ZM42.6269 33.3331C41.7593 33.1197 40.8201 33.4919 40.351 34.3045C40.0697 34.7917 40.01 35.3461 40.1406 35.8509L42.6269 33.3331ZM33.169 23.9547L30.4922 22.4092C30.4168 22.5397 30.346 22.6684 30.277 22.7936L30.277 22.7937C29.7732 23.7089 29.3705 24.4404 28.0729 24.3184C26.8545 24.1631 26.6156 23.1881 26.3823 22.2361C26.351 22.1082 26.3197 21.9806 26.2862 21.8556L23.3007 22.6561C23.3363 22.7889 23.3751 22.9215 23.4139 23.0536L23.4139 23.0537C23.6932 24.0064 23.965 24.9332 22.9383 25.7179C21.9655 26.4702 21.0757 25.9282 20.2648 25.4342L20.2646 25.4341C20.1538 25.3665 20.0444 25.2999 19.9365 25.2376L18.391 27.9144C18.4982 27.9763 18.6105 28.0374 18.7248 28.0997C19.5474 28.5475 20.4731 29.0515 20.3079 30.2739C20.1412 31.5574 19.1935 31.7874 18.2353 32.0199L18.2348 32.02C18.102 32.0523 17.9689 32.0845 17.8378 32.1197L18.6373 35.1055C18.7699 35.07 18.9024 35.0311 19.0343 34.9924L19.0347 34.9923C19.9876 34.7129 20.9153 34.441 21.6998 35.4683C22.1335 36.0292 22.1849 36.7977 21.8303 37.4121L21.2194 38.4701L23.8962 40.0155C23.9655 39.8955 24.0322 39.7736 24.0985 39.6524C24.576 38.779 25.0345 37.9405 26.3144 38.1067C27.5323 38.2607 27.7717 39.2372 28.0051 40.1896C28.0365 40.3173 28.0677 40.4446 28.1011 40.5695L31.0873 39.7693C31.0566 39.6547 31.0234 39.5392 30.9901 39.4233L30.99 39.4232C30.7165 38.4719 30.4347 37.4917 31.4501 36.7068C32.4234 35.9552 33.3122 36.4965 34.1239 36.9908C34.2346 37.0583 34.344 37.1248 34.4519 37.1871L35.9973 34.5103C35.9003 34.4543 35.7975 34.3983 35.6919 34.3408L35.6919 34.3408C34.8909 33.9044 33.9265 33.379 34.0885 32.0922C34.2413 30.8803 35.2196 30.6379 36.1816 30.3996C36.3057 30.3688 36.4295 30.3381 36.5513 30.3055L35.7507 27.3199C35.6256 27.3535 35.4995 27.3902 35.373 27.427C34.432 27.701 33.4682 27.9815 32.7252 27.0044L32.6886 26.9565C31.937 25.9831 32.4783 25.0944 32.9726 24.2827L32.9727 24.2826C33.0401 24.1719 33.1067 24.0626 33.169 23.9547ZM29.871 32.7578C29.0175 34.2361 27.127 34.7427 25.6487 33.8892C24.1705 33.0357 23.6639 31.1452 24.5174 29.6669C25.3709 28.1887 27.2614 27.6821 28.7396 28.5356C30.2179 29.389 30.7245 31.2796 29.871 32.7578Z" fill="black"/>
</svg>