<svg width="53" height="51" viewBox="0 0 53 51" fill="none" xmlns="http://www.w3.org/2000/svg">
<path fill-rule="evenodd" clip-rule="evenodd" d="M31.7236 44.139C32.895 43.8338 33.9549 43.2422 34.8286 42.4429C36.4454 40.9648 38.9456 40.8422 40.612 42.3949C41.9275 43.6204 43.6753 44.3721 45.5958 44.3721C49.6862 44.3721 52.9999 40.9762 52.9999 36.7919C52.9999 32.8917 50.1183 29.6793 46.4151 29.2615L31.7236 44.139ZM45.3734 35.5285C44.6705 35.5285 44.1023 34.9625 44.1023 34.2651C44.1023 33.5677 44.6705 33.0018 45.3734 33.0018C46.0763 33.0018 46.6445 33.5677 46.6445 34.2651C46.6445 34.9625 46.0763 35.5285 45.3734 35.5285ZM42.8313 35.5285C43.5342 35.5285 44.1023 36.0945 44.1023 36.7919C44.1023 37.4893 43.5342 38.0552 42.8313 38.0552C42.1284 38.0552 41.5602 37.4893 41.5602 36.7919C41.5602 36.0945 42.1284 35.5285 42.8313 35.5285ZM45.3734 38.0552C46.0763 38.0552 46.6445 38.6212 46.6445 39.3186C46.6445 40.016 46.0763 40.582 45.3734 40.582C44.6705 40.582 44.1023 40.016 44.1023 39.3186C44.1023 38.6212 44.6705 38.0552 45.3734 38.0552ZM47.9156 35.5285C48.6185 35.5285 49.1866 36.0945 49.1866 36.7919C49.1866 37.4893 48.6185 38.0552 47.9156 38.0552C47.2127 38.0552 46.6445 37.4893 46.6445 36.7919C46.6445 36.0945 47.2127 35.5285 47.9156 35.5285Z" fill="black"/>
<path fill-rule="evenodd" clip-rule="evenodd" d="M50.2071 25.4215L25.1036 0L0 25.4215L25.1036 50.843L31.7238 44.139C31.1399 44.2911 30.5282 44.3721 29.8982 44.3721C25.8091 44.3721 22.4942 40.9761 22.4942 36.7918C22.4942 32.6075 25.8091 29.2116 29.8982 29.2116L45.8667 29.2204C46.0514 29.2273 46.2343 29.241 46.4152 29.2614L50.2071 25.4215ZM31.6091 19.3611L30.1206 19.1046C29.5576 22.7027 31.4807 23.8536 34.7639 24.4601C36.9044 24.8555 37.5145 25.1751 37.5145 27.1409V27.9482H39.0182V27.1409C39.0182 23.7778 36.9056 23.3369 35.0397 22.992C32.6145 22.5435 31.1578 22.1973 31.6091 19.3611ZM31.3917 35.5285H33.9339V38.0552H31.3917V40.582H28.8496V38.0552H26.3074V35.5285H28.8496V33.0017H31.3917V35.5285Z" fill="black"/>
</svg>