<svg width="50" height="51" viewBox="0 0 50 51" fill="none" xmlns="http://www.w3.org/2000/svg">
<path fill-rule="evenodd" clip-rule="evenodd" d="M50 25.3167L25 0L0 25.3167L25 50.6333L31.7138 43.8344C31.49 42.9763 31.0188 42.3122 30.5604 41.6661C29.974 40.8395 29.4084 40.0425 29.4084 38.9063V35.802H31.9469V35.2174C31.9469 33.7414 30.6943 32.8184 29.6367 32.0391C29.2554 31.7581 28.8995 31.4959 28.6368 31.2331C28.3862 30.9826 28.2321 30.7449 28.2321 30.4015C28.2321 29.9074 28.5815 29.4604 29.0955 29.3475L40.9998 26.729C41.6903 26.576 42.3479 27.0913 42.3479 27.7853C42.3479 28.2805 41.9997 28.7264 41.4845 28.8405L31.6705 30.999C31.7663 31.0862 31.8602 31.171 31.9521 31.2541C33.2283 32.4066 34.1137 33.2062 34.1137 34.9915V35.802H36.4663V34.4269C36.4663 32.7059 37.6779 31.2131 39.3906 30.8214L40.8716 30.4167C41.5621 30.2638 42.2197 30.7826 42.2197 31.4731C42.2197 31.9672 41.8715 32.4142 41.3563 32.5271L40.107 32.8694C39.2459 33.0611 38.6343 33.8116 38.6343 34.6751V35.802H39.6458L50 25.3167ZM29.0955 21.9048C28.5815 22.0178 28.2321 22.4648 28.2321 22.96C28.2321 23.6552 28.8909 24.1681 29.5802 24.0163C29.5802 24.0163 33.9031 23.0765 34.6548 22.9C37.2956 22.2789 37.6662 19.3334 35.9687 19.3334C35.5629 19.3334 35.1735 19.5522 34.9783 19.931C34.5665 20.737 34.3605 20.7807 31.4239 21.4036C30.7864 21.5388 30.0203 21.7013 29.0955 21.9048ZM41.4833 25.1162L29.5802 27.7347C28.985 27.8665 28.3933 27.5006 28.2592 26.9172C28.1251 26.3337 28.4991 25.755 29.0955 25.6232L40.9998 23.0059C41.6903 22.853 42.3479 23.3717 42.3479 24.0622C42.3479 24.5563 41.9997 25.0033 41.4833 25.1162Z" fill="black"/>
<path fill-rule="evenodd" clip-rule="evenodd" d="M31.7139 43.8344C31.7311 43.9006 31.7469 43.9678 31.7611 44.0363H38.819C39.0189 43.1015 39.5211 42.3894 40.0103 41.6955C40.6003 40.8587 41.1716 40.0484 41.1716 38.9063V35.802H39.6458L31.7139 43.8344ZM35.9323 47.5653C36.2711 47.5653 36.5946 47.4183 36.8181 47.1642L38.5249 45.2126H32.0552L33.762 47.1642C33.9855 47.4183 34.3078 47.5653 34.6466 47.5653H35.9323Z" fill="black"/>
</svg>