<svg width="70" height="48" viewBox="0 0 70 48" fill="none" xmlns="http://www.w3.org/2000/svg">
<path fill-rule="evenodd" clip-rule="evenodd" d="M31.7464 7.99817L23.8111 0L0 24L23.8111 48L31.7464 40.0017C35.8052 43.9599 41.3637 46.4 47.4948 46.4C59.9241 46.4 70 36.3712 70 24C70 11.6288 59.9241 1.6 47.4948 1.6C41.3637 1.6 35.8052 4.04026 31.7464 7.99817ZM34.827 11.1031L31.7464 7.99817C27.5768 12.0639 24.9896 17.7313 24.9896 24C24.9896 30.2688 27.5768 35.936 31.7464 40.0017L34.827 36.8969C38.094 40.0765 42.5644 42.0364 47.4948 42.0364C57.5029 42.0364 65.6159 33.9613 65.6159 24C65.6159 14.0388 57.5029 5.96364 47.4948 5.96364C42.5644 5.96364 38.094 7.92346 34.827 11.1031ZM34.827 11.1031L47.6222 24L34.827 36.8969C31.4623 33.6224 29.3737 29.0539 29.3737 24C29.3737 18.9461 31.4623 14.3777 34.827 11.1031Z" fill="black"/>
</svg>