<?xml version="1.0" standalone="no"?>
<!DOCTYPE svg PUBLIC "-//W3C//DTD SVG 20010904//EN"
 "http://www.w3.org/TR/2001/REC-SVG-20010904/DTD/svg10.dtd">
<svg version="1.0" xmlns="http://www.w3.org/2000/svg"
 width="240.000000pt" height="240.000000pt" viewBox="0 0 240.000000 240.000000"
 preserveAspectRatio="xMidYMid meet">
<metadata>
Created by potrace 1.14, written by Peter Selinger 2001-2017
</metadata>
<g transform="translate(0.000000,240.000000) scale(0.100000,-0.100000)"
fill="#000000" stroke="none">
<path d="M410 1610 c-223 -226 -405 -413 -405 -415 0 -2 182 -189 405 -415
l404 -411 124 123 c67 68 127 131 133 141 8 13 4 23 -16 45 -15 15 -43 52 -64
82 -190 280 -177 646 31 912 29 37 56 68 60 68 4 0 30 -22 58 -50 l50 -50 -47
-57 c-52 -65 -104 -171 -123 -253 -16 -68 -16 -201 0 -272 24 -104 135 -298
171 -298 12 0 431 426 429 437 -1 4 -96 104 -211 221 -115 117 -209 217 -209
222 0 13 96 83 156 113 77 39 169 59 265 60 110 0 173 -15 278 -65 201 -96
341 -314 344 -536 2 -183 -54 -324 -183 -452 -128 -128 -270 -186 -451 -183
-130 2 -263 51 -367 132 l-52 41 -51 -50 c-59 -58 -59 -56 31 -124 173 -133
424 -182 640 -127 94 24 228 87 276 129 17 15 47 41 66 57 18 17 50 50 68 75
19 25 38 47 41 50 17 16 71 126 93 192 114 338 -18 703 -322 895 -183 115
-418 148 -622 87 -105 -31 -220 -94 -287 -157 -18 -17 -36 -28 -40 -24 -5 4
-67 66 -138 137 l-131 131 -404 -411z"/>
</g>
</svg>
